<svg width="280" height="40" viewBox="0 0 280 40" fill="none" xmlns="http://www.w3.org/2000/svg">
<g clip-path="url(#clip0_153_2865)">
<path d="M25.244 9.08088C27.4393 10.7849 28.6646 13.5058 29.0176 16.1514C29.4542 20.0273 27.8412 22.9559 25.6905 26.0489C24.8215 27.3042 24.0761 28.4056 23.907 29.9261C23.78 30.7529 23.65 31.3842 22.9991 31.9802C21.0813 33.2606 18.8112 33.6662 16.5388 33.271C15.1184 32.9557 13.7408 32.4541 12.8029 31.3286C12.5385 30.9196 12.4855 30.4732 12.4239 30.0041C12.0946 28.0312 11.001 26.4897 9.83675 24.8701C7.73766 21.9429 6.83063 18.8396 7.43984 15.2706C7.9092 12.7545 9.27997 10.407 11.3946 8.83909C15.7226 5.99536 21.0248 6.09961 25.244 9.08088ZM10.9292 11.1031C9.04076 13.2876 8.41257 15.9464 8.63798 18.7363C8.98985 21.3323 10.3355 23.3417 11.8869 25.4155C12.2943 25.9725 12.6423 26.5514 12.9788 27.1503C13.0272 27.235 13.0756 27.3196 13.1255 27.4068C13.5661 28.2112 13.8081 29.0167 13.8291 29.9347C13.8826 30.4375 13.9255 30.5213 14.2945 30.9236C15.871 31.9761 17.6554 32.2204 19.5214 31.9211C20.6293 31.6514 21.7276 31.3509 22.3855 30.3945C22.433 30.1211 22.4705 29.846 22.5018 29.5704C22.7571 27.8561 23.5879 26.5259 24.5872 25.1215C26.6795 22.1801 27.9555 19.4925 27.4687 15.8348C27.0004 13.4907 25.8667 11.2282 23.8108 9.83608C19.6822 7.28595 14.3682 7.52475 10.9292 11.1031Z" fill="#79B52A"/>
<path d="M69.41 3.45245C70.3069 4.15518 70.6014 4.8951 70.7883 5.96797C70.2869 6.05442 69.8536 6.08845 69.3563 5.96797C69.0778 5.64045 68.9068 5.30477 68.7119 4.92544C68.3295 4.31072 67.7445 4.13203 67.0589 3.94526C65.9875 3.71935 65.0222 4.00801 64.0936 4.51938C62.9547 5.71511 62.847 7.11575 62.8719 8.66348C62.914 9.65859 63.1863 10.4599 63.8251 11.2419C64.5845 11.8027 65.2368 12.0136 66.1879 12.0052C66.2891 12.0046 66.3903 12.004 66.4946 12.0034C67.5761 11.9692 68.1171 11.6296 68.8372 10.8949C69.3005 10.2041 69.3748 9.72827 69.4995 8.8825C68.4126 8.8825 67.3257 8.8825 66.2058 8.8825C66.2058 8.4245 66.2058 7.96651 66.2058 7.49463C67.7653 7.49463 69.3248 7.49463 70.9315 7.49463C70.9315 9.37242 70.9315 11.2502 70.9315 13.1849C70.6007 13.1849 70.2699 13.1849 69.9291 13.1849C69.7873 12.8185 69.6456 12.4521 69.4995 12.0746C69.3696 12.2006 69.2396 12.3265 69.1057 12.4563C68.1641 13.2343 66.9234 13.5629 65.6968 13.5075C64.1777 13.3123 63.0323 12.6557 62.0529 11.5195C61.0118 9.93251 60.9538 7.96482 61.2871 6.15447C61.7145 4.77503 62.6166 3.62956 63.9146 2.91465C65.7675 2.0873 67.7699 2.34211 69.41 3.45245Z" fill="#79B52A"/>
<path d="M58.0791 3.0187C58.7159 3.52367 59.2566 4.06744 59.4753 4.85763C59.4863 5.18129 59.4884 5.50555 59.4753 5.82914C59.0028 5.82914 58.5302 5.82914 58.0433 5.82914C57.9901 5.63449 57.937 5.43984 57.8822 5.23929C57.7097 4.73548 57.627 4.59106 57.193 4.23309C56.3347 3.82566 55.383 3.73095 54.4487 3.95985C53.925 4.15854 53.5491 4.35617 53.3176 4.85763C53.2021 5.6272 53.2021 5.6272 53.481 6.31869C53.8439 6.59731 54.1754 6.65725 54.626 6.75674C54.8003 6.79672 54.9747 6.83671 55.1543 6.8779C55.428 6.93842 55.428 6.93842 55.7073 7.00016C58.7526 7.67472 58.7526 7.67472 59.4793 8.62006C59.9292 9.46766 60.0109 10.4597 59.745 11.3714C59.3797 12.2 58.7578 12.7174 57.9186 13.077C56.5304 13.5682 55.0133 13.6591 53.604 13.1849C52.6184 12.7362 51.8582 12.0672 51.4022 11.1031C51.3007 10.6307 51.2929 10.1964 51.3127 9.71518C51.7853 9.71518 52.2579 9.71518 52.7448 9.71518C52.7935 10.0029 52.7935 10.0029 52.8432 10.2964C52.9896 10.9317 53.2036 11.2539 53.7472 11.6582C54.3474 11.9538 54.9115 11.9843 55.573 11.9791C55.6742 11.9786 55.7754 11.978 55.8796 11.9774C56.6902 11.9604 57.3163 11.8655 58.0433 11.5194C58.2478 10.9912 58.2823 10.409 58.1865 9.85397C57.5596 8.94267 56.4856 8.8367 55.4494 8.61952C52.871 8.07371 52.871 8.07371 51.9571 7.1216C51.5683 6.2893 51.4921 5.49534 51.7602 4.61475C52.1366 3.68734 52.6921 3.15981 53.609 2.74275C54.9869 2.22506 56.7818 2.34167 58.0791 3.0187Z" fill="#79B52A"/>
<path d="M51.4558 27.2022C52.9001 27.1807 52.9001 27.1807 54.3736 27.1588C54.8251 27.1493 54.8251 27.1493 55.2856 27.1397C57.9271 27.1072 57.9271 27.1072 58.9024 27.8961C59.4756 28.5318 59.6532 29.2814 59.6185 30.1167C59.4509 31.0473 59.0078 31.6758 58.3296 32.3373C58.4153 32.3688 58.5009 32.4003 58.5892 32.4327C59.0219 32.6844 59.1323 32.8532 59.332 33.3088C59.4173 33.8418 59.4514 34.3755 59.4842 34.9135C59.5027 35.2 59.5222 35.4865 59.5429 35.7728C59.5546 35.9624 59.5546 35.9624 59.5665 36.1559C59.6071 36.5513 59.6071 36.5513 59.9049 37.0561C59.3378 37.0561 58.7707 37.0561 58.1864 37.0561C58.0542 36.6717 58.011 36.3813 57.9817 35.981C57.9712 35.8534 57.9606 35.7257 57.9498 35.5942C57.9286 35.3261 57.9084 35.0579 57.8894 34.7897C57.8785 34.6618 57.8676 34.534 57.8564 34.4023C57.8431 34.2275 57.8431 34.2275 57.8296 34.0491C57.7424 33.6609 57.6061 33.459 57.3272 33.17C56.8543 33.0173 56.4764 33.0026 55.9785 32.9873C55.7359 32.9794 55.7359 32.9794 55.4884 32.9713C55.283 32.9653 55.0775 32.9593 54.8659 32.9532C54.2131 32.9331 53.5604 32.9131 52.8879 32.8925C52.8879 34.2665 52.8879 35.6404 52.8879 37.0561C52.4153 37.0561 51.9427 37.0561 51.4558 37.0561C51.4558 33.8043 51.4558 30.5525 51.4558 27.2022ZM52.8879 28.3125C52.8879 29.4117 52.8879 30.5109 52.8879 31.6434C53.5174 31.6509 54.1468 31.6564 54.7764 31.6607C55.044 31.6642 55.044 31.6642 55.317 31.6678C55.4892 31.6687 55.6613 31.6696 55.8387 31.6705C55.9969 31.6719 56.1551 31.6734 56.3182 31.6749C56.939 31.63 57.3319 31.4819 57.8016 31.0882C58.1442 30.4979 58.1391 29.9483 58.0432 29.284C57.9059 28.8486 57.7843 28.7448 57.3752 28.5069C56.8522 28.294 56.5008 28.2643 55.9366 28.2718C55.6693 28.2738 55.6693 28.2738 55.3967 28.2759C55.1207 28.2811 55.1207 28.2811 54.839 28.2865C54.6517 28.2883 54.4643 28.2902 54.2712 28.2922C53.8101 28.297 53.349 28.3045 52.8879 28.3125Z" fill="#79B52A"/>
<path d="M68.5659 27.4051C69.8044 28.1383 70.35 29.1881 70.8331 30.4812C71.2193 32.2728 70.9361 33.9397 69.9739 35.5035C69.2526 36.4853 68.1395 37.1135 66.9218 37.3338C65.3694 37.47 63.9712 37.3031 62.7421 36.3232C61.4785 35.162 60.9857 33.7448 60.9023 32.0788C60.9196 30.5772 61.4364 29.2455 62.4932 28.1445C64.1326 26.6685 66.5834 26.4641 68.5659 27.4051ZM63.3591 29.1578C62.4065 30.4591 62.3021 31.8728 62.5441 33.4266C62.8158 34.4783 63.417 35.2364 64.371 35.7984C65.4459 36.192 66.4014 36.1912 67.4796 35.8028C68.4107 35.3876 68.8577 34.7566 69.2131 33.8641C69.6811 32.5368 69.5534 31.2888 69.0699 29.9781C68.6157 29.1564 68.0656 28.7121 67.2082 28.3126C67.1137 28.2668 67.0192 28.221 66.9218 28.1738C65.5633 28.0399 64.317 28.1252 63.3591 29.1578Z" fill="#79B52A"/>
<path d="M42.0044 2.77563C44.5563 2.77563 47.1082 2.77563 49.7374 2.77563C49.7374 3.18783 49.7374 3.60003 49.7374 4.02472C47.6581 4.02472 45.5788 4.02472 43.4364 4.02472C43.4364 5.07811 43.4364 6.13151 43.4364 7.21682C45.374 7.21682 47.3115 7.21682 49.3078 7.21682C49.3078 7.62902 49.3078 8.04122 49.3078 8.46591C47.3702 8.46591 45.4327 8.46591 43.4364 8.46591C43.4364 9.5651 43.4364 10.6643 43.4364 11.7968C45.563 11.7968 47.6896 11.7968 49.8806 11.7968C49.8806 12.2548 49.8806 12.7128 49.8806 13.1847C47.2815 13.1847 44.6823 13.1847 42.0044 13.1847C42.0044 9.74969 42.0044 6.31471 42.0044 2.77563Z" fill="#79B52A"/>
<path d="M42.0044 27.2022C42.8787 27.1908 43.7529 27.1793 44.6537 27.1675C44.9273 27.1625 45.201 27.1574 45.483 27.1522C45.7033 27.1506 45.9236 27.1492 46.1439 27.148C46.2555 27.1452 46.3671 27.1423 46.4822 27.1394C47.379 27.1389 48.1396 27.353 48.8109 27.9534C49.4846 28.6939 49.6627 29.3417 49.6389 30.307C49.5421 31.0964 49.2275 31.7876 48.6186 32.3287C47.5454 33.0017 46.4765 32.9268 45.2354 32.9098C44.6418 32.9041 44.0481 32.8984 43.4364 32.8925C43.4364 34.2665 43.4364 35.6405 43.4364 37.0561C42.9639 37.0561 42.4913 37.0561 42.0044 37.0561C42.0044 33.8043 42.0044 30.5525 42.0044 27.2022ZM43.4364 28.3125C43.4364 29.4575 43.4364 30.6025 43.4364 31.7822C43.8854 31.7879 44.3343 31.7937 44.7969 31.7995C44.936 31.8021 45.0751 31.8046 45.2184 31.8072C46.1302 31.8128 47.0533 31.8072 47.7952 31.2357C48.2229 30.6886 48.254 30.086 48.1622 29.4228C47.9188 28.933 47.7542 28.6669 47.2448 28.4296C46.5041 28.2611 45.7871 28.2835 45.0296 28.2952C44.241 28.3038 44.241 28.3038 43.4364 28.3125Z" fill="#79B52A"/>
<path d="M22.6093 15.6917C22.9583 15.8218 22.9583 15.8218 23.1563 16.0907C23.2979 16.7716 22.9947 17.2714 22.7167 17.895C22.6546 18.0394 22.5925 18.1838 22.5286 18.3325C22.3812 18.6754 22.2328 19.0177 22.0836 19.3598C21.762 20.0996 21.4492 20.8428 21.1358 21.5858C20.8932 22.1599 20.6504 22.7338 20.4075 23.3077C20.348 23.4484 20.2886 23.589 20.2273 23.734C20.0543 24.1428 19.8806 24.5512 19.7066 24.9596C19.6553 25.0811 19.604 25.2025 19.5512 25.3277C19.1967 26.1572 18.8 26.9595 18.3758 27.7575C17.8024 27.8244 17.5764 27.8002 17.1035 27.4628C16.9603 27.3285 16.8195 27.1919 16.6808 27.0533C16.6058 26.981 16.5307 26.9087 16.4534 26.8343C16.2956 26.6814 16.139 26.5274 15.9834 26.3725C15.7449 26.136 15.5026 25.9037 15.2594 25.6717C15.1065 25.5224 14.9537 25.3728 14.8013 25.223C14.7288 25.1538 14.6563 25.0845 14.5816 25.0131C14.2662 24.6948 14.09 24.4885 14.0167 24.0473C14.0797 23.7327 14.0797 23.7327 14.3661 23.4551C14.805 23.3941 15.0063 23.4019 15.3692 23.6568C15.4596 23.7489 15.55 23.8411 15.6432 23.936C15.7429 24.0356 15.8427 24.1351 15.9455 24.2377C16.0475 24.343 16.1495 24.4483 16.2546 24.5568C16.4592 24.7636 16.6641 24.9701 16.8694 25.1764C16.9593 25.2687 17.0492 25.361 17.1419 25.4561C17.3632 25.6885 17.3632 25.6885 17.6598 25.8145C17.6842 25.7398 17.7087 25.6652 17.7339 25.5882C18.0027 24.7849 18.3155 24.0082 18.6549 23.2307C18.7088 23.1063 18.7627 22.9818 18.8182 22.8536C18.9895 22.4583 19.1615 22.0633 19.3335 21.6683C19.446 21.4088 19.5586 21.1493 19.6711 20.8897C19.8381 20.5043 20.0054 20.119 20.1734 19.734C20.45 19.1001 20.7235 18.4653 20.9907 17.8276C21.0423 17.7058 21.0938 17.584 21.1469 17.4585C21.2441 17.2282 21.3404 16.9975 21.4354 16.7664C21.899 15.6749 21.899 15.6749 22.6093 15.6917Z" fill="#79B52A"/>
<path d="M56.6112 16.377C57.9 16.377 57.9 16.377 58.2273 16.6751C58.3112 16.8229 58.3952 16.9707 58.4818 17.1229C58.5862 17.2983 58.6908 17.4736 58.7956 17.6488C58.8549 17.7514 58.9141 17.8539 58.9752 17.9596C59.2322 18.3931 59.5023 18.8181 59.7745 19.2427C59.8262 19.3234 59.878 19.4041 59.9313 19.4873C60.0367 19.6519 60.1422 19.8164 60.2478 19.981C60.5032 20.38 60.7568 20.7801 61.0102 21.1803C61.0973 21.3176 61.1843 21.455 61.274 21.5965C61.4801 21.9284 61.4801 21.9284 61.6233 22.206C61.6706 20.2824 61.7178 18.3588 61.7665 16.377C62.0973 16.377 62.4281 16.377 62.7689 16.377C62.7689 18.8959 62.7689 21.4149 62.7689 24.0102C61.6233 24.0102 61.6233 24.0102 61.3308 23.7664C61.261 23.6529 61.1912 23.5395 61.1193 23.4226C60.9973 23.2322 60.9973 23.2322 60.8728 23.0379C60.7481 22.8322 60.7481 22.8322 60.6209 22.6224C60.4387 22.3439 60.2561 22.0656 60.0732 21.7875C59.8884 21.4993 59.704 21.2109 59.52 20.9222C59.3346 20.6323 59.1491 20.3424 58.9634 20.0526C58.8828 19.9263 58.8022 19.7999 58.7191 19.6698C58.4531 19.2612 58.1781 18.8598 57.9 18.4588C57.8964 18.622 57.8928 18.7852 57.8891 18.9534C57.8757 19.5569 57.8613 20.1603 57.8467 20.7637C57.8405 21.0253 57.8345 21.2868 57.8288 21.5484C57.8206 21.9236 57.8114 22.2987 57.8021 22.6739C57.7985 22.8504 57.7985 22.8504 57.7949 23.0305C57.7731 23.8557 57.7731 23.8557 57.6136 24.0102C57.2828 24.0102 56.952 24.0102 56.6112 24.0102C56.6112 21.4913 56.6112 18.9723 56.6112 16.377Z" fill="#79B52A"/>
<path d="M13.2205 35.3906C13.9266 35.418 14.431 35.6001 15.0273 35.9409C15.968 36.3369 16.9584 36.4124 17.973 36.4055C18.0906 36.4049 18.2081 36.4043 18.3292 36.4037C19.8075 36.3775 21.1152 36.1502 22.3855 35.3906C22.7883 35.3386 22.7883 35.3386 23.1015 35.3906C23.3879 35.6682 23.3879 35.6682 23.4327 36.1192C23.1718 36.8417 22.7496 36.9795 22.065 37.3108C21.6695 37.4724 21.6695 37.4724 21.3534 37.5234C21.0647 37.5925 21.0647 37.5925 20.9143 37.9039C20.8622 38.0249 20.8102 38.1458 20.7566 38.2704C20.3717 39.0714 19.9843 39.4451 19.1813 39.8752C18.2329 40.1159 17.5126 40.0078 16.6573 39.5542C16.123 39.107 15.5733 38.5904 15.4709 37.885C15.3933 37.583 15.3933 37.583 15.0715 37.4551C14.948 37.415 14.8245 37.3749 14.6972 37.3336C14.037 37.1017 13.4393 36.8518 12.934 36.3621C12.9072 36.0238 12.9072 36.0238 12.934 35.6682C13.0286 35.5766 13.1231 35.485 13.2205 35.3906ZM16.9438 37.8888C17.5536 38.6121 17.5536 38.6121 18.161 38.6694C18.7683 38.6121 18.7683 38.6121 19.3782 37.8888C18.5748 37.8888 17.7715 37.8888 16.9438 37.8888Z" fill="#79B52A"/>
<path d="M46.8733 16.6545C47.3229 17.0161 47.689 17.3605 47.8758 17.9036C47.8937 18.3547 47.8937 18.3547 47.8758 18.7364C47.5922 18.7364 47.3087 18.7364 47.0165 18.7364C46.9818 18.6594 46.9471 18.5825 46.9114 18.5032C46.8634 18.4027 46.8154 18.3021 46.7659 18.1986C46.6962 18.0488 46.6962 18.0488 46.625 17.896C46.402 17.5639 46.2562 17.4773 45.8709 17.3485C45.0634 17.2462 44.3803 17.2041 43.6871 17.6434C43.3937 18.1104 43.3282 18.3388 43.4364 18.8751C43.9362 19.3837 44.5811 19.4298 45.2623 19.5517C46.3959 19.7769 47.3191 19.9772 48.019 20.9309C48.2611 21.6788 48.2988 22.3011 47.9384 23.0041C47.55 23.5908 47.0082 23.8791 46.3257 24.0916C45.0992 24.3178 43.9489 24.2566 42.9095 23.5749C42.4269 23.2202 42.1481 22.9158 42.0044 22.3448C41.9865 21.8851 41.9865 21.8851 42.0044 21.5121C42.3352 21.5121 42.666 21.5121 43.0068 21.5121C43.0434 21.6251 43.0434 21.6251 43.0807 21.7403C43.3501 22.5328 43.3501 22.5328 44.0093 23.0388C44.8431 23.3453 45.7802 23.2157 46.5869 22.9C46.9516 22.5024 47.0186 22.3043 47.0076 21.7723C46.8493 21.302 46.7243 21.2149 46.3005 20.9569C45.9856 20.8483 45.9856 20.8483 45.6483 20.784C45.5248 20.7565 45.4013 20.7291 45.274 20.7008C45.0168 20.6463 44.7595 20.5921 44.5021 20.5381C43.6651 20.3514 42.9009 20.1594 42.3837 19.4379C42.1441 18.7023 42.1806 17.9867 42.5235 17.2964C43.7022 16.0339 45.3325 15.9239 46.8733 16.6545Z" fill="#79B52A"/>
<path d="M69.3826 16.4919C70.0797 16.9277 70.6184 17.5444 70.851 18.32C70.8776 18.4574 70.9042 18.5948 70.9316 18.7363C70.5535 18.7363 70.1755 18.7363 69.7859 18.7363C69.7121 18.5846 69.6383 18.4329 69.5622 18.2766C69.2216 17.7044 68.8734 17.5304 68.2107 17.3485C67.4479 17.247 66.8465 17.3371 66.2058 17.7648C65.3696 18.6717 65.3034 19.4475 65.3159 20.6425C65.3708 21.4513 65.5834 21.9864 66.1342 22.6137C66.7241 23.0853 67.259 23.0861 67.9948 23.0778C68.5268 23.02 68.82 22.8274 69.2131 22.4836C69.5353 22.0487 69.7372 21.5964 69.9291 21.0957C70.2599 21.0957 70.5907 21.0957 70.9316 21.0957C70.8951 22.0687 70.62 22.7364 69.9291 23.4551C69.064 24.1059 68.1707 24.2627 67.0914 24.2146C66.2169 24.0888 65.5314 23.8086 64.9344 23.1651C64.0018 21.891 63.9328 20.5209 64.0578 19.0139C64.1782 18.5398 64.3529 18.1706 64.6306 17.7648C64.6913 17.6754 64.7521 17.5859 64.8146 17.4938C65.8686 16.1394 67.7986 15.8125 69.3826 16.4919Z" fill="#79B52A"/>
<path d="M13.7021 33.0622C14.102 33.1764 14.4494 33.3283 14.8226 33.5083C16.7882 34.386 19.0514 34.3982 21.0967 33.7252C21.4465 33.5561 21.7733 33.3775 22.0991 33.1684C22.4589 32.9961 22.705 32.9876 23.1015 33.0313C23.3879 33.3088 23.3879 33.3088 23.4864 33.6905C23.3722 34.2134 23.2923 34.2729 22.8599 34.5753C20.6992 35.8356 18.029 35.926 15.6225 35.4053C14.7313 35.1522 13.8073 34.8472 13.0773 34.2803C12.9508 33.7621 12.9508 33.7621 12.9341 33.3088C13.3637 33.0313 13.3637 33.0313 13.7021 33.0622Z" fill="#79B52A"/>
<path d="M48.8782 16.3769C49.5713 16.2269 49.5713 16.2269 50.0238 16.3769C50.4993 16.8996 50.8278 17.5021 51.1694 18.1117C51.2673 18.2791 51.3656 18.4462 51.4642 18.6132C51.704 19.0223 51.9396 19.4333 52.1719 19.8465C52.7126 19.0731 53.2309 18.292 53.7202 17.4872C54.302 16.533 54.302 16.533 54.4631 16.3769C54.8456 16.3573 55.2256 16.371 55.6087 16.3769C55.3963 17.1371 55.0164 17.7163 54.5705 18.3632C54.5039 18.4616 54.4372 18.5599 54.3686 18.6612C54.3016 18.7598 54.2346 18.8585 54.1655 18.9601C54.0979 19.0606 54.0303 19.1611 53.9606 19.2647C53.817 19.4693 53.666 19.6691 53.5085 19.8638C52.8384 20.7219 52.7598 21.4322 52.7626 22.4922C52.7596 22.6388 52.7567 22.7854 52.7536 22.9364C52.7469 23.2945 52.744 23.6521 52.7447 24.0102C52.4139 24.0102 52.0831 24.0102 51.7422 24.0102C51.7469 23.9322 51.7516 23.8542 51.7564 23.7739C51.8534 21.6067 51.3768 20.2385 50.0944 18.4754C49.8063 18.0788 49.5394 17.6717 49.272 17.2616C49.1945 17.1482 49.1169 17.0348 49.037 16.9179C48.8782 16.6544 48.8782 16.6544 48.8782 16.3769Z" fill="#79B52A"/>
<path d="M17.5166 9.43748C17.615 9.82782 17.615 9.82782 17.6598 10.2702C17.3304 10.7298 16.9016 10.8016 16.362 10.9381C14.7794 11.3933 13.8039 12.1381 12.7254 13.31C12.3612 13.6011 12.3612 13.6011 11.9657 13.5843C11.6452 13.4623 11.6452 13.4623 11.502 13.3235C11.4451 12.8247 11.4512 12.5678 11.7336 12.14C13.2012 10.6217 15.2299 8.97578 17.5166 9.43748Z" fill="#79B52A"/>
<path d="M31.9891 18.9791C32.1279 19.0363 32.2667 19.0936 32.4097 19.1526C32.457 19.29 32.5043 19.4274 32.5529 19.5689C32.6268 19.4974 32.7006 19.4258 32.7767 19.3521C33.2753 19.0671 33.5787 19.1558 34.1282 19.2913C34.4056 19.5082 34.4056 19.5082 34.5578 19.7077C34.6996 19.6161 34.8413 19.5245 34.9874 19.4301C35.3365 19.3694 35.3365 19.3694 35.7034 19.4301C36.0435 19.725 36.0435 19.725 36.2762 20.1241C36.2762 20.6209 36.2275 20.8554 35.8824 21.2257C35.5602 21.3731 35.5602 21.3731 35.2022 21.3645C34.7793 21.2108 34.5656 21.0066 34.2714 20.6792C34.1769 20.7708 34.0824 20.8624 33.985 20.9568C33.4159 21.0303 33.1914 21.001 32.714 20.6792C32.6136 20.5876 32.5132 20.496 32.4097 20.4016C32.3152 20.4932 32.2207 20.5848 32.1233 20.6792C31.6789 20.725 31.3847 20.7493 30.9956 20.5231C30.7588 20.1406 30.7781 19.8672 30.8345 19.4301C31.1835 18.9843 31.4163 18.8431 31.9891 18.9791Z" fill="#79B52A"/>
<path d="M18.3131 0.0260698C18.8054 0.138834 18.8054 0.138834 19.0918 0.555196C19.027 1.45077 19.027 1.45077 18.6622 1.80428C18.736 1.87584 18.8099 1.9474 18.886 2.02113C19.1776 2.50045 19.0799 2.8022 18.9486 3.33094C18.8541 3.42254 18.7596 3.51414 18.6622 3.60851C18.773 3.68151 18.773 3.68151 18.886 3.75597C19.0918 4.02487 19.0918 4.02487 19.065 4.5193C18.9486 4.99638 18.9486 4.99638 18.6622 5.27396C18.142 5.33972 17.8955 5.33768 17.4629 5.03975C17.2302 4.71881 17.2302 4.71881 17.1675 4.37184C17.2401 3.96958 17.3825 3.77203 17.6598 3.46973C17.5889 3.4182 17.518 3.36668 17.445 3.31359C17.2302 3.05336 17.2302 3.05336 17.1765 2.64568C17.2345 2.18597 17.3403 2.0009 17.6598 1.66549C17.5859 1.61683 17.5121 1.56817 17.436 1.51803C17.2302 1.24913 17.2302 1.24913 17.2481 0.754702C17.4226 0.0901677 17.6132 -0.00963511 18.3131 0.0260698Z" fill="#79B52A"/>
<path d="M34.0029 9.92334C34.4146 9.99273 34.4146 9.99273 34.6741 10.1662C34.8698 10.4457 34.9558 10.6269 34.9874 10.9642C34.8676 11.3232 34.7571 11.48 34.4414 11.7015C34.0506 11.8206 33.8021 11.7632 33.4122 11.6582C33.3117 11.7984 33.2113 11.9387 33.1079 12.0832C32.9126 12.3147 32.9126 12.3147 32.6961 12.4909C32.2218 12.4736 32.2218 12.4736 31.8369 12.3521C31.7601 12.4638 31.6833 12.5754 31.6042 12.6904C31.2641 13.0461 31.2641 13.0461 30.8345 13.1935C30.4049 13.1848 30.4049 13.1848 30.0648 12.968C29.7643 12.5312 29.7324 12.3121 29.8321 11.797C30.1453 11.4587 30.1453 11.4587 30.5481 11.2418C30.9508 11.2765 30.9508 11.2765 31.2641 11.3806C31.3379 11.2661 31.4118 11.1516 31.4879 11.0336C31.603 10.9191 31.7182 10.8046 31.8369 10.6867C32.1711 10.6867 32.5052 10.6867 32.8393 10.6867C33.5768 9.98941 33.5768 9.98941 34.0029 9.92334Z" fill="#79B52A"/>
<path d="M27.693 2.64572C28.3409 2.84612 28.3409 2.84612 28.5432 3.19219C28.5522 3.66927 28.5522 3.66927 28.4 4.1637C28.1145 4.35005 27.8282 4.53517 27.5408 4.71885C27.505 5.14102 27.505 5.14102 27.5408 5.55157C27.3179 5.86487 27.1719 5.94945 26.7979 6.06335C26.7123 6.07766 26.6266 6.09197 26.5384 6.10672C26.5472 6.23553 26.5561 6.36434 26.5652 6.49706C26.5384 6.93944 26.5384 6.93944 26.3594 7.19099C26.064 7.38523 25.8947 7.47414 25.536 7.49459C25.1511 7.34713 25.1511 7.34713 24.8199 7.07823C24.6678 6.67054 24.6678 6.67054 24.6767 6.24551C24.9462 5.88764 25.1379 5.72642 25.5718 5.58627C25.6958 5.56909 25.6958 5.56909 25.8224 5.55157C25.7751 5.50577 25.7279 5.45997 25.6792 5.41279C25.6255 5.09184 25.6255 5.09184 25.6792 4.71885C25.9976 4.42648 26.29 4.21469 26.6816 4.02491C26.6698 3.89896 26.658 3.77302 26.6458 3.64325C26.6816 3.19219 26.6816 3.19219 26.9143 2.8539C27.2544 2.63704 27.2544 2.63704 27.693 2.64572Z" fill="#79B52A"/>
<path d="M4.63718 18.8838C5.28511 19.0842 5.28511 19.0842 5.48745 19.4303C5.46955 19.9247 5.46955 19.9247 5.34425 20.4018C4.84984 20.7212 4.63576 20.7272 4.05542 20.6793C3.9609 20.5877 3.86639 20.4961 3.76901 20.4018C3.69221 20.4934 3.61542 20.585 3.5363 20.6793C3.19619 20.9569 3.19619 20.9569 2.75763 21.009C2.33697 20.9569 2.33697 20.9569 1.90736 20.6793C1.85715 20.7709 1.80694 20.8625 1.75521 20.9569C1.47775 21.2345 1.47775 21.2345 0.976535 21.2952C0.475322 21.2345 0.475322 21.2345 0.197865 21.0784C-0.0330018 20.6835 -0.0293114 20.4308 0.0457111 19.9854C0.358969 19.6471 0.358969 19.6471 0.76173 19.4303C1.25196 19.4524 1.41519 19.5084 1.76416 19.8466C1.86458 19.7293 1.965 19.6119 2.06846 19.491C2.48017 19.1527 2.48017 19.1527 2.93664 19.17C3.3394 19.2915 3.3394 19.2915 3.6258 19.4303C3.7026 19.3358 3.77939 19.2413 3.85851 19.144C4.19862 18.8751 4.19862 18.8751 4.63718 18.8838Z" fill="#79B52A"/>
<path d="M2.40856 9.99268C2.90977 10.1315 2.90977 10.1315 3.18723 10.4871C3.23744 10.5987 3.28765 10.7104 3.33938 10.8254C3.46934 10.7939 3.5993 10.7624 3.73319 10.73C4.1986 10.6866 4.1986 10.6866 4.52081 10.8601C4.77142 11.103 4.77142 11.103 5.05783 11.5193C5.10508 11.4735 5.15234 11.4277 5.20103 11.3805C5.69329 11.4152 5.69329 11.4152 6.20346 11.5193C6.53466 12.0008 6.55069 12.2025 6.48986 12.7684C6.32876 13.0286 6.32876 13.0286 6.06025 13.1848C5.63959 13.2455 5.63959 13.2455 5.20103 13.1848C4.87127 12.9257 4.67429 12.7189 4.48501 12.3521C4.43775 12.3979 4.3905 12.4437 4.34181 12.4908C3.8585 12.4735 3.8585 12.4735 3.33938 12.3521C3.06193 11.9964 3.06193 11.9964 2.90977 11.6581C2.67939 11.7139 2.67939 11.7139 2.44436 11.7709C1.90735 11.7969 1.90735 11.7969 1.54934 11.502C1.33453 11.103 1.33453 11.103 1.34348 10.7387C1.58992 10.1336 1.71146 9.99268 2.40856 9.99268Z" fill="#79B52A"/>
<path d="M28.4806 25.693C28.8606 25.8252 29.0328 25.9074 29.2593 26.2308C29.2861 26.6038 29.2861 26.6038 29.2593 26.9247C29.4158 26.9133 29.5723 26.9018 29.7336 26.89C30.2617 26.9247 30.2617 26.9247 30.5302 27.1676C30.681 27.46 30.7754 27.7141 30.8345 28.035C30.9704 28.0522 31.1062 28.0694 31.2462 28.0871C31.6937 28.1738 31.6937 28.1738 31.9801 28.4514C32.048 28.9556 32.0459 29.1944 31.7385 29.6137C31.4073 29.8393 31.4073 29.8393 31.0493 29.9173C30.6913 29.8393 30.6913 29.8393 30.3601 29.527C30.1185 29.1453 30.1185 29.1453 30.1185 28.5902C30.0387 28.6245 29.959 28.6589 29.8768 28.6943C29.5457 28.729 29.5457 28.729 29.1519 28.5034C28.8297 28.1738 28.8297 28.1738 28.7849 27.7922C28.7997 27.6891 28.8144 27.5861 28.8297 27.4799C28.6997 27.4942 28.5697 27.5085 28.4358 27.5233C27.9704 27.4799 27.9704 27.4799 27.6214 27.1763C27.3976 26.786 27.3976 26.786 27.3976 26.4216C27.6261 25.8957 27.8784 25.6645 28.4806 25.693Z" fill="#79B52A"/>
<path d="M8.35153 25.8143C8.70059 26.1179 8.70059 26.1179 8.92434 26.5082C8.92434 26.9587 8.85293 27.1301 8.53054 27.4537C8.15513 27.6457 7.91093 27.6523 7.49231 27.6185C7.50117 27.7244 7.51003 27.8303 7.51916 27.9395C7.49231 28.3125 7.49231 28.3125 7.3312 28.564C6.95166 28.797 6.64276 28.7572 6.20347 28.7288C6.19757 28.8576 6.19166 28.9864 6.18557 29.1192C6.06027 29.5615 6.06027 29.5615 5.66646 29.8478C5.20105 29.9779 5.20105 29.9779 4.79829 29.8044C4.48503 29.5615 4.48503 29.5615 4.34182 29.4228C4.27657 28.6954 4.27657 28.6954 4.50293 28.3298C4.88319 28.1087 5.19645 28.1456 5.63066 28.1737C5.64247 28.0449 5.65429 27.9161 5.66646 27.7833C5.77386 27.341 5.77386 27.341 6.03342 27.0807C6.34668 26.9246 6.34668 26.9246 6.91949 26.9246C6.96084 26.7672 7.00219 26.6097 7.04479 26.4475C7.09796 26.2843 7.15112 26.1212 7.2059 25.9531C7.61757 25.7536 7.89599 25.7613 8.35153 25.8143Z" fill="#79B52A"/>
<path d="M9.21074 2.77586C9.49714 2.92332 9.49714 2.92332 9.64035 3.19222C9.5956 3.704 9.5956 3.704 9.49714 4.16373C9.60643 4.17518 9.71571 4.18663 9.8283 4.19843C10.2132 4.30252 10.2132 4.30252 10.4817 4.5454C10.6854 4.94021 10.6301 5.13749 10.4996 5.5516C10.6354 5.58882 10.7713 5.62603 10.9113 5.66437C11.3588 5.82918 11.3588 5.82918 11.6452 6.24554C11.6363 6.6619 11.6363 6.6619 11.502 7.07826C11.1798 7.35584 11.1798 7.35584 10.786 7.49462C10.3314 7.38192 10.1155 7.26121 9.78355 6.93948C9.76565 6.50577 9.76565 6.50577 9.78355 6.10675C9.64473 6.04092 9.50591 5.97508 9.36289 5.90725C8.92433 5.69039 8.92433 5.69039 8.78113 5.5516C8.77526 5.22782 8.77505 4.90388 8.78113 4.58009C8.66889 4.54288 8.55665 4.50567 8.44102 4.46733C8.06511 4.30252 8.06511 4.30252 7.7787 3.88616C7.72866 3.49822 7.72538 3.28038 7.93085 2.94067C8.36494 2.68282 8.71442 2.72433 9.21074 2.77586Z" fill="#79B52A"/>
<path d="M34.4146 9.99257C34.7183 10.1956 34.8188 10.3503 34.9606 10.6778C34.9956 11.0515 34.9222 11.213 34.701 11.5192C34.3371 11.7746 34.1842 11.8042 33.7344 11.7448C33.628 11.7161 33.5217 11.6875 33.4122 11.658C33.3236 11.7725 33.235 11.887 33.1437 12.005C32.993 12.1767 32.993 12.1767 32.8394 12.352C32.7448 12.352 32.6503 12.352 32.5529 12.352C32.5529 11.894 32.5529 11.436 32.5529 10.9641C32.6947 10.9183 32.8365 10.8725 32.9826 10.8253C33.0831 10.596 33.1787 10.3646 33.269 10.1314C33.6698 9.93715 33.9714 9.95751 34.4146 9.99257Z" fill="#79B52A"/>
<path d="M9.21074 2.77586C9.49714 2.92332 9.49714 2.92332 9.64035 3.19222C9.5956 3.704 9.5956 3.704 9.49714 4.16373C9.63892 4.20953 9.78069 4.25533 9.92675 4.30252C9.73773 4.30252 9.5487 4.30252 9.35394 4.30252C9.35394 4.80632 9.35394 5.31011 9.35394 5.82918C9.16491 5.73758 8.97588 5.64598 8.78113 5.5516C8.78113 5.23101 8.78113 4.91041 8.78113 4.58009C8.66889 4.54288 8.55665 4.50567 8.44102 4.46733C8.06511 4.30252 8.06511 4.30252 7.7787 3.88616C7.72866 3.49822 7.72538 3.28038 7.93085 2.94067C8.36494 2.68282 8.71442 2.72433 9.21074 2.77586Z" fill="#79B52A"/>
<path d="M26.252 4.30249C26.252 4.80629 26.252 5.31008 26.252 5.82915C26.3465 5.87495 26.441 5.92075 26.5384 5.96794C26.5907 6.86341 26.5907 6.86341 26.3594 7.19967C26.0635 7.38404 25.8899 7.47442 25.536 7.49459C25.1511 7.34713 25.1511 7.34713 24.8199 7.07823C24.6678 6.67055 24.6678 6.67055 24.6767 6.24551C24.9462 5.88765 25.1379 5.72642 25.5718 5.58627C25.6958 5.5691 25.6958 5.5691 25.8224 5.55157C25.7751 5.50577 25.7279 5.45997 25.6792 5.41279C25.6344 5.00086 25.6144 4.79803 25.885 4.4673C26.1088 4.30249 26.1088 4.30249 26.252 4.30249Z" fill="#79B52A"/>
<path d="M2.40856 9.99268C2.90977 10.1315 2.90977 10.1315 3.16933 10.4784C3.22545 10.5929 3.28156 10.7074 3.33938 10.8254C3.4339 10.8712 3.52841 10.917 3.62579 10.9642C3.53128 11.3764 3.43676 11.7886 3.33938 12.2133C3.19761 12.0301 3.05584 11.8469 2.90977 11.6581C2.67939 11.7139 2.67939 11.7139 2.44436 11.7709C1.90735 11.7969 1.90735 11.7969 1.54934 11.502C1.33453 11.103 1.33453 11.103 1.34348 10.7387C1.58992 10.1336 1.71146 9.99268 2.40856 9.99268Z" fill="#79B52A"/>
<path d="M17.9462 0C17.9462 1.74039 17.9462 3.48078 17.9462 5.27391C17.7571 5.18231 17.5681 5.09071 17.3734 4.99634C17.2391 4.52793 17.2391 4.52793 17.2302 4.02483C17.436 3.68653 17.436 3.68653 17.6598 3.46968C17.5889 3.41815 17.518 3.36663 17.445 3.31354C17.2302 3.05332 17.2302 3.05332 17.1765 2.64563C17.2345 2.18592 17.3403 2.00085 17.6598 1.66545C17.5859 1.61678 17.5121 1.56812 17.436 1.51798C17.2302 1.24908 17.2302 1.24908 17.2481 0.754655C17.4463 0 17.4463 0 17.9462 0Z" fill="#79B52A"/>
<path d="M5.63066 27.6187C5.95524 28.1804 6.28514 28.8199 6.12292 29.4663C5.8379 29.7905 5.63151 29.8907 5.20105 29.978C4.86571 29.8229 4.60486 29.6778 4.34182 29.4229C4.27657 28.6956 4.27657 28.6956 4.50293 28.3299C4.88319 28.1088 5.19645 28.1457 5.63066 28.1738C5.63066 27.9906 5.63066 27.8074 5.63066 27.6187Z" fill="#79B52A"/>
<path d="M30.8793 28.0002C31.4073 28.0349 31.4073 28.0349 31.7564 28.1911C31.9801 28.4513 31.9801 28.4513 32.0517 28.859C31.9801 29.284 31.9801 29.284 31.7385 29.6136C31.4073 29.8392 31.4073 29.8392 31.0404 29.8999C30.6236 29.8274 30.5178 29.7435 30.2617 29.4228C30.2147 29.1138 30.2147 29.1138 30.2259 28.7809C30.2281 28.6704 30.2303 28.5598 30.2326 28.4459C30.2825 27.9789 30.3769 28.037 30.8793 28.0002Z" fill="#79B52A"/>
<path d="M28.4895 25.7016C28.8297 25.8144 28.8297 25.8144 29.1161 26.092C29.0215 26.092 28.927 26.092 28.8297 26.092C28.8769 26.779 28.9242 27.466 28.9729 28.1738C28.9256 28.1738 28.8783 28.1738 28.8297 28.1738C28.8297 27.9448 28.8297 27.7158 28.8297 27.4798C28.6997 27.4942 28.5697 27.5085 28.4358 27.5232C27.9704 27.4798 27.9704 27.4798 27.6214 27.1763C27.3976 26.7859 27.3976 26.7859 27.3976 26.4216C27.6285 25.8901 27.8815 25.6595 28.4895 25.7016Z" fill="#79B52A"/>
<path d="M18.2326 1.8042C18.587 1.9416 18.587 1.9416 18.9486 2.08177C19.1425 2.97001 19.1425 2.97001 18.8859 3.39158C18.8121 3.46314 18.7383 3.5347 18.6622 3.60843C18.736 3.65709 18.8099 3.70576 18.8859 3.75589C19.0918 4.02479 19.0918 4.02479 19.0471 4.53657C19.0146 4.68828 18.9821 4.83999 18.9486 4.9963C18.7596 5.0421 18.5705 5.0879 18.3758 5.13509C18.2468 4.02156 18.216 2.92425 18.2326 1.8042Z" fill="#79B52A"/>
<path d="M7.63546 25.8145C7.95766 25.7711 7.95766 25.7711 8.35147 25.8145C8.69158 26.1181 8.69158 26.1181 8.92429 26.5084C8.90149 26.9836 8.84365 27.1417 8.49468 27.48C7.97556 27.4973 7.97556 27.4973 7.49225 27.48C7.48839 27.2544 7.48561 27.0289 7.4833 26.8034C7.48164 26.6778 7.47998 26.5522 7.47827 26.4228C7.49225 26.0921 7.49225 26.0921 7.63546 25.8145Z" fill="#79B52A"/>
<path d="M10.3564 5.69019C11.2156 5.69019 11.2156 5.69019 11.4931 5.91571C11.7031 6.37077 11.6668 6.60896 11.502 7.07806C11.1619 7.34696 11.1619 7.34696 10.786 7.49442C10.6442 7.44862 10.5024 7.40282 10.3564 7.35563C10.3564 6.80603 10.3564 6.25644 10.3564 5.69019Z" fill="#79B52A"/>
<path d="M27.3976 2.77563C28.1136 2.77563 28.1136 2.77563 28.3821 2.9231C28.6407 3.35468 28.5145 3.69404 28.4 4.16351C28.3055 4.25511 28.211 4.3467 28.1136 4.44108C27.8773 4.44108 27.6411 4.44108 27.3976 4.44108C27.3976 3.89148 27.3976 3.34189 27.3976 2.77563Z" fill="#79B52A"/>
<path d="M6.91946 27.0635C6.87221 27.5673 6.82495 28.0711 6.77626 28.5901C6.87077 28.6359 6.96529 28.6817 7.06267 28.7289C6.65991 28.7636 6.65991 28.7636 6.20344 28.7289C5.83323 28.418 5.78044 28.2186 5.71118 27.7487C5.77383 27.3411 5.77383 27.3411 6.02444 27.0722C6.34665 26.9247 6.34665 26.9247 6.91946 27.0635Z" fill="#79B52A"/>
<path d="M27.5766 2.67154C27.6593 2.70589 27.742 2.74023 27.8272 2.77563C27.712 2.82143 27.5969 2.86723 27.4782 2.91441C27.0934 3.14885 27.0934 3.14885 27.0318 3.46685C26.9984 3.7442 26.9822 4.02338 26.968 4.30228C26.8735 4.30228 26.779 4.30228 26.6816 4.30228C26.6816 4.80608 26.6816 5.30988 26.6816 5.82894C26.8234 5.87474 26.9651 5.92054 27.1112 5.96773C26.8277 5.92193 26.5441 5.87613 26.252 5.82894C26.2404 5.58038 26.2321 5.33168 26.2251 5.08296C26.2202 4.94449 26.2152 4.80602 26.21 4.66335C26.2239 4.5442 26.2377 4.42505 26.252 4.30228C26.3938 4.21068 26.5355 4.11909 26.6816 4.02471C26.6786 3.89304 26.6757 3.76136 26.6727 3.6257C26.6816 3.19199 26.6816 3.19199 26.9322 2.85369C27.2544 2.63684 27.2544 2.63684 27.5766 2.67154Z" fill="#79B52A"/>
<path d="M31.1208 28.1738C31.8368 28.3126 31.8369 28.3126 31.9801 28.4514C32.0178 29.0109 32.0222 29.2229 31.6937 29.7005C31.5047 29.7005 31.3156 29.7005 31.1208 29.7005C31.1208 29.1967 31.1208 28.6929 31.1208 28.1738Z" fill="#79B52A"/>
<path d="M8.63796 2.77563C8.63796 3.32523 8.63796 3.87483 8.63796 4.44108C8.06515 4.30229 8.06515 4.30229 7.77874 3.88593C7.72607 3.47755 7.71465 3.27777 7.96669 2.94044C8.20835 2.77563 8.20835 2.77563 8.63796 2.77563Z" fill="#79B52A"/>
<path d="M25.536 5.69019C25.536 6.23978 25.536 6.78938 25.536 7.35563C24.9632 7.21684 24.9632 7.21684 24.6768 6.80048C24.7036 6.37545 24.7036 6.37545 24.82 5.96776C25.2496 5.69019 25.2496 5.69019 25.536 5.69019Z" fill="#79B52A"/>
<path d="M10.07 4.44116C10.2117 4.48696 10.3535 4.53276 10.4996 4.57995C10.6607 5.23919 10.6607 5.23919 10.4996 5.55146C10.4667 5.8574 10.4408 6.16405 10.419 6.47092C10.407 6.63587 10.395 6.80083 10.3827 6.97077C10.374 7.0978 10.3653 7.22482 10.3564 7.35569C10.2146 7.26409 10.0728 7.17249 9.92679 7.07812C9.89116 6.80454 9.89116 6.80454 9.91616 6.47418C9.92401 6.3561 9.93185 6.23802 9.93994 6.11637C9.95037 5.99292 9.9608 5.86948 9.97154 5.74229C9.98031 5.61777 9.98908 5.49326 9.99811 5.36496C10.0201 5.05684 10.0441 4.749 10.07 4.44116Z" fill="#79B52A"/>
<path d="M18.3759 0.138672C18.5649 0.184472 18.754 0.230271 18.9487 0.277459C19.1277 1.19692 19.1277 1.19692 18.8055 1.66533C18.6637 1.66533 18.522 1.66533 18.3759 1.66533C18.3759 1.16153 18.3759 0.657736 18.3759 0.138672Z" fill="#79B52A"/>
<path d="M10.3564 5.69019C10.4981 5.69019 10.6399 5.69019 10.786 5.69019C10.786 6.28558 10.786 6.88098 10.786 7.49442C10.6442 7.44862 10.5024 7.40282 10.3564 7.35563C10.3564 6.80603 10.3564 6.25644 10.3564 5.69019Z" fill="#79B52A"/>
<path d="M25.536 5.69019C25.6778 5.69019 25.8195 5.69019 25.9656 5.69019C25.9656 6.23978 25.9656 6.78938 25.9656 7.35563C25.8238 7.40143 25.682 7.44723 25.536 7.49442C25.536 6.89902 25.536 6.30362 25.536 5.69019Z" fill="#79B52A"/>
<path d="M18.519 1.94312C18.6608 1.98891 18.8025 2.03471 18.9486 2.0819C19.1097 3.01872 19.1097 3.01872 18.9486 3.33099C18.8068 3.33099 18.6651 3.33099 18.519 3.33099C18.519 2.87299 18.519 2.41499 18.519 1.94312Z" fill="#79B52A"/>
<path d="M18.519 3.74731C18.8025 3.88471 18.8025 3.88471 19.0918 4.02489C19.0446 4.34549 18.9973 4.66609 18.9486 4.9964C18.8068 5.0422 18.6651 5.088 18.519 5.13519C18.519 4.67719 18.519 4.21919 18.519 3.74731Z" fill="#79B52A"/>
<path d="M27.9705 2.91455C28.2541 3.05195 28.2541 3.05195 28.5433 3.19213C28.4961 3.51272 28.4488 3.83332 28.4001 4.16363C28.2584 4.20943 28.1166 4.25523 27.9705 4.30242C27.9705 3.84442 27.9705 3.38643 27.9705 2.91455Z" fill="#79B52A"/>
<path d="M27.8272 25.8145C27.9217 25.8603 28.0163 25.9061 28.1136 25.9532C28.0664 26.3654 28.0191 26.7776 27.9704 27.2023C27.8287 27.1565 27.6869 27.1107 27.5408 27.0635C27.4424 26.7513 27.4424 26.7513 27.3976 26.3696C27.6035 26.0487 27.6035 26.0487 27.8272 25.8145Z" fill="#79B52A"/>
<path d="M17.5166 0.138672C17.6111 0.184472 17.7056 0.230271 17.803 0.277459C17.7557 0.689657 17.7085 1.10185 17.6598 1.52654C17.5652 1.52654 17.4707 1.52654 17.3734 1.52654C17.1944 0.607078 17.1944 0.607078 17.5166 0.138672Z" fill="#79B52A"/>
<path d="M17.5166 3.74731C17.5638 3.74731 17.6111 3.74731 17.6598 3.74731C17.6598 4.20531 17.6598 4.66331 17.6598 5.13519C17.2302 4.71882 17.2302 4.71882 17.1854 4.36318C17.2302 4.02489 17.2302 4.02489 17.5166 3.74731Z" fill="#79B52A"/>
<path d="M18.8054 0.41626C18.8999 0.46206 18.9944 0.507859 19.0918 0.555047C19.0445 0.875645 18.9973 1.19624 18.9486 1.52656C18.8541 1.52656 18.7596 1.52656 18.6622 1.52656C18.6561 1.20277 18.6563 0.878834 18.6622 0.555047C18.7094 0.509247 18.7567 0.463447 18.8054 0.41626Z" fill="#79B52A"/>
</g>
<defs>
<clipPath id="clip0_153_2865">
<rect width="280" height="40" fill="white"/>
</clipPath>
</defs>
</svg>
